<?xml version="1.0" encoding="UTF-8" standalone="no"?>
<svg
   xmlns:dc="http://purl.org/dc/elements/1.1/"
   xmlns:cc="http://creativecommons.org/ns#"
   xmlns:rdf="http://www.w3.org/1999/02/22-rdf-syntax-ns#"
   xmlns:svg="http://www.w3.org/2000/svg"
   xmlns="http://www.w3.org/2000/svg"
   xmlns:sodipodi="http://sodipodi.sourceforge.net/DTD/sodipodi-0.dtd"
   xmlns:inkscape="http://www.inkscape.org/namespaces/inkscape"
   sodipodi:docname="favicon.svg"
   inkscape:version="1.0 (4035a4fb49, 2020-05-01)"
   id="svg53"
   version="1.1"
   viewBox="0 0 7.3125706 7.5517817"
   height="7.5517817mm"
   width="7.3125706mm">
  <defs
     id="defs47" />
  <sodipodi:namedview
     inkscape:window-maximized="1"
     inkscape:window-y="1341"
     inkscape:window-x="-9"
     inkscape:window-height="1001"
     inkscape:window-width="1920"
     fit-margin-bottom="0"
     fit-margin-right="0"
     fit-margin-left="0"
     fit-margin-top="0"
     showgrid="false"
     inkscape:document-rotation="0"
     inkscape:current-layer="layer1"
     inkscape:document-units="mm"
     inkscape:cy="9.4903092"
     inkscape:cx="33.578852"
     inkscape:zoom="7.9195959"
     inkscape:pageshadow="2"
     inkscape:pageopacity="0.0"
     borderopacity="1.0"
     bordercolor="#666666"
     pagecolor="#ffffff"
     id="base" />
  <metadata
     id="metadata50">
    <rdf:RDF>
      <cc:Work
         rdf:about="">
        <dc:format>image/svg+xml</dc:format>
        <dc:type
           rdf:resource="http://purl.org/dc/dcmitype/StillImage" />
        <dc:title></dc:title>
      </cc:Work>
    </rdf:RDF>
  </metadata>
  <g
     transform="translate(-103.68906,-136.0753)"
     id="layer1"
     inkscape:groupmode="layer"
     inkscape:label="Warstwa 1">
    <path
       style="stroke-width:0.264583;fill:#f44336;fill-opacity:1"
       d="m 109.99557,138.24451 h -2.24023 a 0.12051771,0.12051771 0 1 0 0,0.24103 h 2.24023 a 0.12038542,0.12038542 0 0 0 0,-0.24077 z"
       id="path14" />
    <path
       style="stroke-width:0.264583;stroke:none;stroke-opacity:1;fill:#f44336;fill-opacity:1"
       d="m 110.88087,139.20865 h -0.28258 v -1.20491 h 0.0402 a 0.12038545,0.12038545 0 1 0 0,-0.24077 h -0.20532 a 1.5689792,1.5689792 0 0 0 -1.44145,-1.44172 v -0.12462 a 0.12051771,0.12051771 0 1 0 -0.24103,0 v 0.12489 a 1.5689792,1.5689792 0 0 0 -1.44119,1.44118 h -0.20532 a 0.12052,0.12052 0 1 0 0,0.24104 h 0.04 v 1.20491 h -0.8435 c 0.0527,-0.0701 0.0905,-0.15214 0.10848,-0.24104 h 0.0524 a 0.12038545,0.12038545 0 1 0 0,-0.24077 h -0.16087 c 0.0527,-0.0704 0.0905,-0.15213 0.10848,-0.24103 h 0.0524 a 0.12052,0.12052 0 1 0 0,-0.24104 h -0.16087 c 0.0527,-0.0701 0.0905,-0.15213 0.10848,-0.24077 h 0.0524 a 0.12065,0.12065 0 1 0 0,-0.2413 h -0.16087 c 0.0527,-0.0699 0.0905,-0.15187 0.10848,-0.24077 h 0.0524 a 0.12038542,0.12038542 0 1 0 0,-0.24077 h -2.40956 a 0.12038542,0.12038542 0 1 0 0,0.24077 h 0.0524 c 0.018,0.0889 0.0558,0.17092 0.10848,0.24077 h -0.16087 a 0.12052,0.12052 0 1 0 0,0.24104 h 0.0524 c 0.018,0.0889 0.0558,0.17092 0.10848,0.24077 h -0.16087 a 0.12065,0.12065 0 1 0 0,0.2413 h 0.0524 c 0.018,0.0889 0.0558,0.17065 0.10848,0.24077 h -0.16087 a 0.12051775,0.12051775 0 1 0 0,0.24103 h 0.0524 c 0.018,0.0889 0.0558,0.17093 0.10848,0.24078 h -0.40349 a 0.12038542,0.12038542 0 0 0 -0.12039,0.12065 v 0.96387 c 0,0.0667 0.0537,0.12039 0.12039,0.12039 h 5.94677 a 0.12038542,0.12038542 0 1 0 0,-0.24077 H 103.93 v -0.72311 h 6.83048 v 0.72311 h -0.52255 a 0.12038542,0.12038542 0 1 0 0,0.24077 h 0.48075 v 2.48444 c -0.18151,-0.0175 -0.28575,-0.0752 -0.40376,-0.14023 -0.14922,-0.082 -0.31829,-0.17542 -0.64029,-0.17542 -0.322,0 -0.49133,0.0934 -0.64056,0.17568 -0.14181,0.0781 -0.26405,0.14552 -0.52414,0.14552 -0.26008,0 -0.38258,-0.0675 -0.52414,-0.14552 -0.14922,-0.0823 -0.31855,-0.17568 -0.64055,-0.17568 -0.322,0 -0.49133,0.0934 -0.64056,0.17568 -0.14181,0.0781 -0.26405,0.14552 -0.52414,0.14552 -0.26008,0 -0.38258,-0.0675 -0.52414,-0.14552 -0.14922,-0.0823 -0.31829,-0.17568 -0.64055,-0.17568 -0.32227,0 -0.49133,0.0934 -0.64029,0.17568 -0.0339,0.0185 -0.0661,0.0362 -0.0997,0.0529 -0.0841,0.0415 -0.17463,0.0746 -0.30427,0.0873 v -2.12328 a 0.12038542,0.12038542 0 1 0 -0.24077,0 v 2.24896 c 0,0.0667 0.054,0.12065 0.12038,0.12065 0.14896,0 0.26458,-0.0201 0.36142,-0.0497 v 0.41116 a 0.12038542,0.12038542 0 1 0 0.24077,0 v -0.5162 c 0.0132,-0.007 0.0259,-0.014 0.0384,-0.0209 0.14155,-0.078 0.26405,-0.14552 0.52387,-0.14552 0.25982,0 0.38259,0.0675 0.52441,0.14552 0.14922,0.0823 0.31829,0.17569 0.64029,0.17569 0.32226,0 0.49159,-0.0934 0.64082,-0.17569 0.14155,-0.078 0.26379,-0.14552 0.52387,-0.14552 0.26009,0 0.38259,0.0675 0.52441,0.14552 0.14922,0.0823 0.31829,0.17569 0.64029,0.17569 0.32226,0 0.4916,-0.0934 0.64082,-0.17569 0.14155,-0.078 0.26379,-0.14552 0.52388,-0.14552 0.26008,0 0.38258,0.0675 0.52414,0.14552 l 0.0381,0.0209 v 0.5162 a 0.12051771,0.12051771 0 1 0 0.24103,0 v -0.41116 c 0.0966,0.0296 0.21246,0.0497 0.36142,0.0497 a 0.12038542,0.12038542 0 0 0 0.12039,-0.12039 v -2.64001 a 0.12012083,0.12012083 0 0 0 0.0421,-0.091 v -0.96387 a 0.12038542,0.12038542 0 0 0 -0.12038,-0.12065 z m -5.06175,0 h -1.12448 c -0.15716,0 -0.29104,-0.10054 -0.34078,-0.24077 h 1.80605 c -0.0498,0.13996 -0.18363,0.24077 -0.34079,0.24077 z m 0,-0.48207 h -1.12448 c -0.15716,0 -0.29104,-0.10054 -0.34078,-0.24077 h 1.80605 c -0.0498,0.14023 -0.18363,0.24077 -0.34079,0.24077 z m 0,-0.48181 h -1.12448 c -0.15716,0 -0.29104,-0.10054 -0.34078,-0.24077 h 1.80605 c -0.0498,0.14023 -0.18363,0.24077 -0.34079,0.24077 z m 0,-0.48207 h -1.12448 c -0.15716,0 -0.29104,-0.10054 -0.34078,-0.24077 h 1.80605 c -0.0498,0.14023 -0.18363,0.24077 -0.34079,0.24077 z m 3.05224,-1.20465 a 1.3268854,1.3268854 0 0 1 1.31947,1.20465 h -2.63922 a 1.3268854,1.3268854 0 0 1 1.31975,-1.20465 z m 1.4859,2.6506 h -2.9718 v -1.20491 h 2.9718 z"
       id="path16" />
    <path
       style="stroke-width:0.264583;fill:#f44336;fill-opacity:1"
       d="m 110.27682,141.57799 a 0.12038542,0.12038542 0 0 1 -0.12065,0.12065 0.12038542,0.12038542 0 0 1 -0.12038,-0.12065 0.12038542,0.12038542 0 0 1 0.12038,-0.12038 0.12038542,0.12038542 0 0 1 0.12065,0.12038 m -0.48207,0.48207 a 0.12038542,0.12038542 0 0 1 -0.12038,0.12039 0.12038542,0.12038542 0 0 1 -0.12039,-0.12039 0.12038542,0.12038542 0 0 1 0.12039,-0.12065 0.12038542,0.12038542 0 0 1 0.12038,0.12065"
       id="path18" />
  </g>
</svg>
