<?xml version="1.0" encoding="UTF-8"?>
<svg width="169.21mm" height="65.165mm" version="1.1" viewBox="0 0 169.21 65.165" xmlns="http://www.w3.org/2000/svg">
 <g transform="translate(-20.568 -8.7973)" fill="currentColor">
  <g transform="translate(3.2781 .45501)" style="shape-inside:url(#rect12);white-space:pre" aria-label="PRACOWNIA posilkow">
   <path d="m39.325 47.67q0 0.8001-0.3048 1.5113-0.2921 0.6985-0.8255 1.2319-0.5207 0.5334-1.2192 0.8509-0.6985 0.3048-1.4986 0.3175v1.4859h-2.1463v-9.3218h2.1463q0.8001 0.0127 1.4986 0.3302t1.2192 0.8509q0.5334 0.5334 0.8255 1.2446 0.3048 0.6985 0.3048 1.4986zm-3.8481 1.7653q0.3556-0.0127 0.6604-0.1524 0.3175-0.1524 0.5461-0.381 0.2286-0.2413 0.3556-0.5588 0.1397-0.3175 0.1397-0.6731t-0.1397-0.6731q-0.127-0.3175-0.3556-0.5461-0.2286-0.2413-0.5461-0.381-0.3048-0.1524-0.6604-0.1651z"/>
   <path d="m43.417 50.655q-0.1651 0.0254-0.3302 0.0381t-0.3429 0.0254v2.3495h-2.1463v-9.2964h2.1463q0.8001 0.0127 1.4986 0.2921t1.2192 0.7493q0.5334 0.4699 0.8255 1.0922 0.3048 0.6223 0.3048 1.3335 0 0.7493-0.3175 1.397-0.3175 0.635-0.889 1.1049l2.0574 3.3274h-2.5273zm-0.6731-2.0955q0.3429-0.0127 0.6477-0.1143 0.3175-0.1143 0.5461-0.2921 0.2413-0.1778 0.3683-0.4064 0.1397-0.2413 0.1397-0.508t-0.1397-0.4953q-0.127-0.2286-0.3683-0.4064-0.2286-0.1778-0.5461-0.2794-0.3048-0.1143-0.6477-0.127z"/>
   <path d="m53.721 53.068-0.3683-1.1303h-2.9337l-0.381 1.1303h-2.2733l3.175-9.3218h2.032l3.0099 9.3218zm-2.5654-3.2766h1.5113l-0.7366-2.2606z"/>
   <path d="m60.648 53.055q-0.9017 0-1.7653-0.3302-0.8509-0.3429-1.5367-1.0287-0.6604-0.6731-1.016-1.5113-0.3429-0.8509-0.3429-1.7907 0-0.9525 0.3429-1.7907 0.3556-0.8509 1.016-1.5113 0.6858-0.6858 1.5494-1.0287t1.7526-0.3429q0.9017 0 1.7526 0.3429 0.8636 0.3429 1.5494 1.0287l-1.5113 1.5113q-0.3683-0.3683-0.8382-0.5461-0.4699-0.1905-0.9525-0.1905t-0.9525 0.1905q-0.4572 0.1778-0.8255 0.5461-0.3556 0.3683-0.5461 0.8255t-0.1905 0.9652 0.1905 0.9652q0.1905 0.4445 0.5461 0.8128 0.3683 0.3683 0.8255 0.5588 0.4699 0.1778 0.9525 0.1778t0.9525-0.1778q0.4699-0.1905 0.8382-0.5588l1.5113 1.524q-0.6858 0.6858-1.5367 1.0287-0.8509 0.3302-1.7653 0.3302z"/>
   <path d="m68.61 43.733q0.9652 0 1.8161 0.3683t1.4859 1.0033q0.635 0.6223 1.0033 1.4732t0.3683 1.8161-0.3683 1.8161-1.0033 1.4859q-0.635 0.6223-1.4859 0.9906t-1.8161 0.3683-1.8161-0.3683-1.4859-0.9906q-0.6223-0.635-0.9906-1.4859t-0.3683-1.8161 0.3683-1.8161 0.9906-1.4732q0.635-0.635 1.4859-1.0033t1.8161-0.3683zm0 7.1755q0.5207 0 0.9779-0.1905 0.4572-0.2032 0.8001-0.5461t0.5334-0.8001q0.2032-0.4572 0.2032-0.9779t-0.2032-0.9779q-0.1905-0.4572-0.5334-0.8001t-0.8001-0.5334q-0.4572-0.2032-0.9779-0.2032t-0.9779 0.2032q-0.4572 0.1905-0.8001 0.5334t-0.5461 0.8001q-0.1905 0.4572-0.1905 0.9779t0.1905 0.9779q0.2032 0.4572 0.5461 0.8001t0.8001 0.5461q0.4572 0.1905 0.9779 0.1905z"/>
   <path d="m83.055 43.682h2.2479l-2.7559 9.3853h-2.1209l-1.2319-4.6736-1.0668 4.6736h-2.1336l-3.0988-9.3853h2.2606l1.7272 5.1943 1.1811-5.1943h2.1082l1.3716 5.1689z"/>
   <path d="m90.941 43.746h2.1463v9.3218h-2.3241l-3.048-5.4356v5.4356h-2.1463v-9.2964h2.3368l3.0353 5.4229z"/>
   <path d="m96.422 53.068h-2.1463v-9.3345h2.1463z"/>
   <path d="m103.03 53.068-0.3683-1.1303h-2.9337l-0.381 1.1303h-2.2733l3.175-9.3218h2.032l3.0099 9.3218zm-2.5654-3.2766h1.5113l-0.7366-2.2606z"/>
   <path d="m114.09 47.67q0 0.8001-0.3048 1.5113-0.2921 0.6985-0.8255 1.2319-0.5207 0.5334-1.2192 0.8509-0.6985 0.3048-1.4986 0.3175v1.4859h-2.1463v-9.3218h2.1463q0.8001 0.0127 1.4986 0.3302t1.2192 0.8509q0.5334 0.5334 0.8255 1.2446 0.3048 0.6985 0.3048 1.4986zm-3.8481 1.7653q0.3556-0.0127 0.6604-0.1524 0.3175-0.1524 0.5461-0.381 0.2286-0.2413 0.3556-0.5588 0.1397-0.3175 0.1397-0.6731t-0.1397-0.6731q-0.127-0.3175-0.3556-0.5461-0.2286-0.2413-0.5461-0.381-0.3048-0.1524-0.6604-0.1651z"/>
   <path d="m119.39 43.733q0.9652 0 1.8161 0.3683t1.4859 1.0033q0.635 0.6223 1.0033 1.4732t0.3683 1.8161-0.3683 1.8161-1.0033 1.4859q-0.635 0.6223-1.4859 0.9906t-1.8161 0.3683-1.8161-0.3683-1.4859-0.9906q-0.6223-0.635-0.9906-1.4859t-0.3683-1.8161 0.3683-1.8161 0.9906-1.4732q0.635-0.635 1.4859-1.0033t1.8161-0.3683zm0 7.1755q0.5207 0 0.9779-0.1905 0.4572-0.2032 0.8001-0.5461t0.5334-0.8001q0.2032-0.4572 0.2032-0.9779t-0.2032-0.9779q-0.1905-0.4572-0.5334-0.8001t-0.8001-0.5334q-0.4572-0.2032-0.9779-0.2032t-0.9779 0.2032q-0.4572 0.1905-0.8001 0.5334t-0.5461 0.8001q-0.1905 0.4572-0.1905 0.9779t0.1905 0.9779q0.2032 0.4572 0.5461 0.8001t0.8001 0.5461q0.4572 0.1905 0.9779 0.1905z"/>
   <path d="m127.45 53.245q-0.4445 0-0.889-0.127-0.4318-0.1143-0.8255-0.3683-0.6858-0.4445-1.0668-1.143-0.381-0.7112-0.381-1.5494h2.1463q0 0.381 0.1651 0.5969 0.1651 0.2032 0.2921 0.2794 0.2286 0.1524 0.4953 0.1651t0.5207-0.1016q0.1778-0.0762 0.2794-0.1905 0.1143-0.1143 0.1651-0.2159 0.0635-0.1143 0.0762-0.2159t0.0127-0.1651-0.0127-0.1651-0.0762-0.2159q-0.0508-0.1143-0.1651-0.2159-0.1016-0.1143-0.2794-0.2032-0.1397-0.0635-0.3048-0.1143-0.1524-0.0508-0.3302-0.1143-0.3175-0.1016-0.6604-0.2286t-0.6858-0.3429q-0.4445-0.2794-0.7493-0.6985t-0.4445-0.9017q-0.127-0.4826-0.0889-0.9906 0.0508-0.5207 0.2921-0.9906 0.2286-0.4318 0.5715-0.7493t0.762-0.4953q0.4191-0.1905 0.9017-0.2286t0.9779 0.0889q0.4826 0.1143 0.8763 0.3683 0.3937 0.2413 0.6731 0.5969 0.2921 0.3429 0.4445 0.7747t0.1524 0.9017h-2.1463q0-0.2921-0.1905-0.4064-0.1778-0.1143-0.3175-0.1524-0.0254 0-0.127-0.0127-0.0889-0.0254-0.2159 0-0.1143 0.0127-0.2413 0.0889-0.127 0.0635-0.2032 0.2159-0.1016 0.2032-0.0381 0.4318 0.0635 0.2159 0.254 0.3429 0.1778 0.1016 0.3937 0.1905 0.2159 0.0762 0.4572 0.1524 0.2159 0.0635 0.4318 0.1397 0.2286 0.0762 0.4572 0.1778 0.8382 0.381 1.3081 1.1176 0.4826 0.7366 0.4826 1.6383 0 0.889-0.4826 1.6256-0.4699 0.7366-1.3081 1.1176-0.3302 0.1524-0.6731 0.2159-0.3429 0.0762-0.6858 0.0762z"/>
   <path d="m133.65 53.068h-2.1463v-9.3345h2.1463z"/>
   <path d="m140.48 53.068h-5.5499v-9.3345h2.1463v7.1882h3.4036z"/>
   <path d="m149.6 43.733-4.7879 4.6736 4.7879 4.6609h-3.0988l-2.9972-2.9337v2.9337h-2.1463v-9.3345h2.1463v2.9464l3.0099-2.9464z"/>
   <path d="m153.76 43.733q0.9652 0 1.8161 0.3683t1.4859 1.0033q0.635 0.6223 1.0033 1.4732t0.3683 1.8161-0.3683 1.8161-1.0033 1.4859q-0.635 0.6223-1.4859 0.9906t-1.8161 0.3683-1.8161-0.3683-1.4859-0.9906q-0.6223-0.635-0.9906-1.4859t-0.3683-1.8161 0.3683-1.8161 0.9906-1.4732q0.635-0.635 1.4859-1.0033t1.8161-0.3683zm0 7.1755q0.5207 0 0.9779-0.1905 0.4572-0.2032 0.8001-0.5461t0.5334-0.8001q0.2032-0.4572 0.2032-0.9779t-0.2032-0.9779q-0.1905-0.4572-0.5334-0.8001t-0.8001-0.5334q-0.4572-0.2032-0.9779-0.2032t-0.9779 0.2032q-0.4572 0.1905-0.8001 0.5334t-0.5461 0.8001q-0.1905 0.4572-0.1905 0.9779t0.1905 0.9779q0.2032 0.4572 0.5461 0.8001t0.8001 0.5461q0.4572 0.1905 0.9779 0.1905z"/>
   <path d="m168.21 43.682h2.2479l-2.7559 9.3853h-2.1209l-1.2319-4.6736-1.0668 4.6736h-2.1336l-3.0988-9.3853h2.2606l1.7272 5.1943 1.1811-5.1943h2.1082l1.3716 5.1689z"/>
  </g>
  <g transform="translate(36.809 -6.0854)" style="shape-inside:url(#rect24);white-space:pre" aria-label="FOOD CATERING">
   <path d="m44.469 72.534h3.0797v1.0583h-1.9156v2.0637h1.5028v1.0583h-1.5028v3.2279h-1.1642z"/>
   <path d="m49.79 80.048q-0.85725 0-1.3123-0.48683t-0.45508-1.3758v-3.8947q0-0.889 0.45508-1.3758t1.3123-0.48683q0.85725 0 1.3123 0.48683t0.45508 1.3758v3.8947q0 0.889-0.45508 1.3758t-1.3123 0.48683zm0-1.0583q0.60325 0 0.60325-0.73025v-4.0428q0-0.73025-0.60325-0.73025-0.60325 0-0.60325 0.73025v4.0428q0 0.73025 0.60325 0.73025z"/>
   <path d="m54.027 80.048q-0.85725 0-1.3123-0.48683-0.45508-0.48683-0.45508-1.3758v-3.8947q0-0.889 0.45508-1.3758 0.45508-0.48683 1.3123-0.48683 0.85725 0 1.3123 0.48683t0.45508 1.3758v3.8947q0 0.889-0.45508 1.3758t-1.3123 0.48683zm0-1.0583q0.60325 0 0.60325-0.73025v-4.0428q0-0.73025-0.60325-0.73025t-0.60325 0.73025v4.0428q0 0.73025 0.60325 0.73025z"/>
   <path d="m56.582 72.534h1.778q0.86783 0 1.3017 0.46566 0.43392 0.46566 0.43392 1.3652v3.7465q0 0.89958-0.43392 1.3652-0.43392 0.46566-1.3017 0.46566h-1.778zm1.7568 6.35q0.28575 0 0.43392-0.16933 0.15875-0.16933 0.15875-0.55033v-3.8523q0-0.381-0.15875-0.55033-0.14817-0.16933-0.43392-0.16933h-0.59266v5.2916z"/>
   <path d="m64.217 80.048q-0.83608 0-1.2806-0.47625-0.43392-0.47625-0.43392-1.3441v-3.9793q0-0.86783 0.43392-1.3441 0.4445-0.47625 1.2806-0.47625 0.83608 0 1.27 0.47625 0.4445 0.47625 0.4445 1.3441v0.78316h-1.1007v-0.85725q0-0.68792-0.58208-0.68792-0.58208 0-0.58208 0.68792v4.1381q0 0.67733 0.58208 0.67733 0.58208 0 0.58208-0.67733v-1.1324h1.1007v1.0477q0 0.86783-0.4445 1.3441-0.43392 0.47625-1.27 0.47625z"/>
   <path d="m67.527 72.534h1.5769l1.2065 7.4083h-1.1642l-0.21167-1.4711v0.02117h-1.3229l-0.21167 1.4499h-1.0795zm1.27 4.953-0.51858-3.6618h-0.02117l-0.508 3.6618z"/>
   <path d="m71.279 73.592h-1.2171v-1.0583h3.5983v1.0583h-1.2171v6.35h-1.1642z"/>
   <path d="m74.214 72.534h3.175v1.0583h-2.0108v1.9579h1.5981v1.0583h-1.5981v2.2754h2.0108v1.0583h-3.175z"/>
   <path d="m78.059 72.534h1.7251q0.89958 0 1.3123 0.42333 0.41275 0.41275 0.41275 1.2806v0.45508q0 1.1536-0.762 1.4605v0.02117q0.42333 0.127 0.59266 0.51858 0.17992 0.39158 0.17992 1.0477v1.3017q0 0.3175 0.02117 0.51858 0.02117 0.1905 0.10583 0.381h-1.1853q-0.0635-0.17992-0.08467-0.33867-0.02117-0.15875-0.02117-0.5715v-1.3547q0-0.508-0.16933-0.70908-0.15875-0.20108-0.56092-0.20108h-0.40217v3.175h-1.1642zm1.5875 3.175q0.34925 0 0.51858-0.17992 0.17992-0.17992 0.17992-0.60325v-0.5715q0-0.40217-0.14817-0.58208-0.13758-0.17992-0.4445-0.17992h-0.52916v2.1167z"/>
   <path d="m82.317 72.534h1.1642v7.4083h-1.1642z"/>
   <path d="m84.342 72.534h1.4605l1.1324 4.4344h0.02117v-4.4344h1.0372v7.4083h-1.1959l-1.397-5.4081h-0.02117v5.4081h-1.0372z"/>
   <path d="m90.52 80.048q-0.84666 0-1.2912-0.47625-0.4445-0.48683-0.4445-1.3864v-3.8947q0-0.89958 0.4445-1.3758 0.4445-0.48683 1.2912-0.48683t1.2912 0.48683q0.4445 0.47625 0.4445 1.3758v0.635h-1.1007v-0.70908q0-0.73025-0.60325-0.73025t-0.60325 0.73025v4.0534q0 0.71966 0.60325 0.71966t0.60325-0.71966v-1.4499h-0.58208v-1.0583h1.6827v2.4236q0 0.89958-0.4445 1.3864-0.4445 0.47625-1.2912 0.47625z"/>
  </g>
  <g transform="matrix(.055735 0 0 .055735 90.904 8.7973)">
   <path d="m435.74 147.06h-151.91c-4.513 0-8.17 3.658-8.17 8.17s3.657 8.17 8.17 8.17h151.91c4.513 0 8.17-3.658 8.17-8.17s-3.656-8.17-8.169-8.17z"/>
   <path d="m495.78 212.43h-19.179v-81.702h2.723c4.513 0 8.17-3.658 8.17-8.17s-3.657-8.17-8.17-8.17h-13.929c-3.979-52.066-45.665-93.752-97.731-97.731v-8.483c0-4.512-3.657-8.17-8.17-8.17s-8.17 3.658-8.17 8.17v8.482c-52.066 3.979-93.752 45.665-97.731 97.731h-13.928c-4.513 0-8.17 3.658-8.17 8.17s3.657 8.17 8.17 8.17h2.723v81.702h-57.213c3.575-4.753 6.141-10.306 7.371-16.34h3.545c4.513 0 8.17-3.658 8.17-8.17s-3.657-8.17-8.17-8.17h-10.916c3.575-4.753 6.141-10.306 7.371-16.34h3.545c4.513 0 8.17-3.658 8.17-8.17s-3.657-8.17-8.17-8.17h-10.916c3.575-4.753 6.141-10.306 7.371-16.34h3.545c4.513 0 8.17-3.658 8.17-8.17s-3.657-8.17-8.17-8.17h-10.916c3.575-4.753 6.141-10.306 7.371-16.34h3.545c4.513 0 8.17-3.658 8.17-8.17s-3.657-8.17-8.17-8.17h-163.4c-4.513 0-8.17 3.658-8.17 8.17s3.657 8.17 8.17 8.17h3.546c1.23 6.034 3.794 11.588 7.371 16.34h-10.917c-4.513 0-8.17 3.658-8.17 8.17s3.657 8.17 8.17 8.17h3.546c1.23 6.034 3.794 11.588 7.371 16.34h-10.917c-4.513 0-8.17 3.658-8.17 8.17s3.657 8.17 8.17 8.17h3.546c1.23 6.034 3.794 11.588 7.371 16.34h-10.917c-4.513 0-8.17 3.658-8.17 8.17s3.657 8.17 8.17 8.17h3.546c1.23 6.034 3.794 11.588 7.371 16.34h-27.373c-4.513 0-8.17 3.658-8.17 8.17v65.362c0 4.512 3.657 8.17 8.17 8.17h403.27c4.513 0 8.17-3.658 8.17-8.17s-3.657-8.17-8.17-8.17h-395.1v-49.021h463.21v49.021h-35.431c-4.513 0-8.17 3.658-8.17 8.17s3.657 8.17 8.17 8.17h32.59v168.48c-12.302-1.192-19.384-5.099-27.371-9.506-10.119-5.582-21.587-11.91-43.435-11.91s-33.317 6.328-43.435 11.91c-9.606 5.3-17.903 9.877-35.543 9.877s-25.938-4.577-35.544-9.877c-10.119-5.582-21.587-11.91-43.437-11.91s-33.318 6.328-43.437 11.91c-9.606 5.3-17.904 9.877-35.544 9.877-17.639 0-25.937-4.577-35.542-9.877-10.118-5.582-21.586-11.91-43.434-11.91s-33.317 6.328-43.435 11.91c-2.276 1.255-4.479 2.466-6.75 3.589-5.705 2.821-11.829 5.064-20.623 5.916v-143.97c0-4.512-3.657-8.17-8.17-8.17s-8.17 3.658-8.17 8.17v152.51c0 4.512 3.657 8.17 8.17 8.17 10.095 0 17.957-1.359 24.511-3.363v27.873c0 4.512 3.657 8.17 8.17 8.17s8.17-3.658 8.17-8.17v-35.004c0.873-0.475 1.736-0.948 2.585-1.416 9.606-5.3 17.903-9.877 35.542-9.877s25.936 4.578 35.54 9.876c10.118 5.583 21.586 11.911 43.435 11.911 21.85 0 33.318-6.328 43.437-11.91 9.606-5.3 17.904-9.877 35.544-9.877s25.938 4.578 35.544 9.877c10.119 5.583 21.587 11.91 43.437 11.91 21.849 0 33.318-6.328 43.436-11.91 9.606-5.3 17.903-9.877 35.542-9.877s25.936 4.578 35.54 9.876c0.849 0.468 1.711 0.941 2.584 1.416v35.006c0 4.512 3.657 8.17 8.17 8.17s8.17-3.658 8.17-8.17v-27.875c6.554 2.004 14.415 3.364 24.511 3.364 4.513 0 8.17-3.658 8.17-8.17v-179.01c1.737-1.498 2.841-3.71 2.841-6.185v-65.362c1e-3 -4.512-3.656-8.17-8.169-8.17zm-343.26 0h-76.256c-10.651 0-19.733-6.831-23.105-16.34h122.47c-3.373 9.508-12.455 16.34-23.105 16.34zm0-32.681h-76.256c-10.651 0-19.733-6.831-23.105-16.34h122.47c-3.373 9.508-12.455 16.34-23.105 16.34zm0-32.681h-76.256c-10.651 0-19.733-6.831-23.105-16.34h122.47c-3.373 9.508-12.455 16.34-23.105 16.34zm0-32.681h-76.256c-10.651 0-19.733-6.831-23.105-16.34h122.47c-3.373 9.509-12.455 16.34-23.105 16.34zm206.98-81.702c46.8 0 85.341 35.963 89.484 81.702h-178.97c4.144-45.739 42.684-81.702 89.484-81.702zm100.77 179.74h-201.53v-81.702h201.53z"/>
   <path d="m454.81 373.11a8.17 8.17 0 0 1-8.17 8.17 8.17 8.17 0 0 1-8.17-8.17 8.17 8.17 0 0 1 8.17-8.17 8.17 8.17 0 0 1 8.17 8.17"/>
   <path d="m422.13 405.79a8.17 8.17 0 0 1-8.17 8.17 8.17 8.17 0 0 1-8.17-8.17 8.17 8.17 0 0 1 8.17-8.17 8.17 8.17 0 0 1 8.17 8.17"/>
  </g>
  <path transform="scale(.26458)" d="m505 266.37h173.9a36.643 36.825 0 0 1 36.643-36.825v-99.369a36.643 36.823 0 0 1-36.643-36.823h-209.06" fill="none" stroke="currentColor" stroke-linecap="round" stroke-width="3.4432"/>
  <path transform="scale(.26458)" d="m323.57 93.349-207.47-3e-6v0a36.643 36.823 0 0 1-36.643 36.823v99.372a36.643 36.823 0 0 1 36.643 36.823h169.61" fill="none" stroke="currentColor" stroke-linecap="round" stroke-width="3.4432"/>
  <g>
   <path d="m29.259 48.851a1.4004 1.4004 0 0 1-1.4004 1.4004 1.4004 1.4004 0 0 1-1.4004-1.4004 1.4004 1.4004 0 0 1 1.4004-1.4004 1.4004 1.4004 0 0 1 1.4004 1.4004"/>
   <path d="m183.77 48.851a1.4004 1.4004 0 0 1-1.4004 1.4004 1.4004 1.4004 0 0 1-1.4004-1.4004 1.4004 1.4004 0 0 1 1.4004-1.4004 1.4004 1.4004 0 0 1 1.4004 1.4004"/>
   <path transform="scale(.26458)" d="m535.11 182.31-10.66 16.471 5.7227 3.7031 13.055-20.174z"/>
   <path d="m157.77 42.9-1.9146 4.6653h1.9498l1.9141-4.6653z"/>
  </g>
 </g>
</svg>
