<svg viewBox="0 0 169.21 65.165" xmlns="http://www.w3.org/2000/svg">
  <g fill="currentColor">
    <g transform="translate(-17.29 -8.342)" style="shape-inside:url(#rect12);white-space:pre" aria-label="PRACOWNIA posilkow">
      <path d="M39.325 47.67q0 .8-.305 1.511-.292.699-.825 1.232-.521.534-1.22.851-.698.305-1.498.318v1.486H33.33v-9.322h2.146q.8.012 1.499.33t1.219.85q.533.534.825 1.245.305.699.305 1.499zm-3.848 1.765q.356-.012.66-.152.318-.152.546-.381.229-.241.356-.559.14-.317.14-.673t-.14-.673q-.127-.318-.356-.546-.228-.241-.546-.381-.304-.153-.66-.165zM43.417 50.655q-.165.025-.33.038t-.343.026v2.349h-2.146v-9.296h2.146q.8.012 1.498.292t1.22.749q.533.47.825 1.092.305.622.305 1.334 0 .749-.318 1.397-.317.635-.889 1.105l2.058 3.327h-2.527zm-.673-2.095q.343-.013.648-.115.317-.114.546-.292.241-.178.368-.406.14-.242.14-.508t-.14-.496q-.127-.228-.368-.406-.229-.178-.546-.28-.305-.114-.648-.126zM53.721 53.068l-.368-1.13h-2.934l-.381 1.13h-2.273l3.175-9.322h2.032l3.01 9.322zm-2.565-3.277h1.51l-.736-2.26zM60.648 53.055q-.902 0-1.765-.33-.851-.343-1.537-1.029-.66-.673-1.016-1.511-.343-.851-.343-1.79 0-.953.343-1.792.356-.85 1.016-1.51.686-.687 1.55-1.03t1.752-.343q.902 0 1.753.343.863.343 1.549 1.03l-1.511 1.51q-.369-.368-.839-.546-.47-.19-.952-.19t-.953.19q-.457.178-.825.546-.356.369-.546.826t-.19.965.19.965q.19.445.546.813.368.368.826.559.47.178.952.178t.952-.178q.47-.19.839-.559l1.511 1.524q-.686.686-1.537 1.029-.85.33-1.765.33z"/>
      <path d="M68.61 43.733q.965 0 1.816.368t1.486 1.004q.635.622 1.003 1.473t.369 1.816-.369 1.816-1.003 1.486q-.635.622-1.486.99t-1.816.369-1.816-.369-1.486-.99q-.622-.635-.99-1.486t-.369-1.816.368-1.816.991-1.473q.635-.635 1.486-1.004t1.816-.368zm0 7.176q.52 0 .978-.191.457-.203.8-.546t.533-.8q.204-.457.204-.978t-.204-.978q-.19-.457-.533-.8t-.8-.534q-.457-.203-.978-.203t-.978.203q-.457.191-.8.534t-.546.8q-.19.457-.19.978t.19.978q.203.457.546.8t.8.546q.457.19.978.19zM83.055 43.682h2.248l-2.756 9.385h-2.12l-1.233-4.673-1.067 4.673h-2.133l-3.099-9.385h2.26l1.728 5.194 1.18-5.194h2.11l1.37 5.169zM90.941 43.746h2.146v9.322h-2.324l-3.048-5.436v5.436H85.57V43.77h2.337l3.035 5.423zM96.422 53.068h-2.146v-9.335h2.146zM103.03 53.068l-.368-1.13h-2.934l-.381 1.13h-2.273l3.175-9.322h2.032l3.01 9.322zm-2.565-3.277h1.51l-.736-2.26zM114.09 47.67q0 .8-.305 1.511-.292.699-.825 1.232-.521.534-1.22.851-.698.305-1.498.318v1.486h-2.146v-9.322h2.146q.8.012 1.498.33t1.22.85q.533.534.825 1.245.305.699.305 1.499zm-3.848 1.765q.355-.012.66-.152.318-.152.546-.381.229-.241.356-.559.14-.317.14-.673t-.14-.673q-.127-.318-.356-.546-.228-.241-.546-.381-.305-.153-.66-.165zM119.39 43.733q.965 0 1.816.368t1.486 1.004q.635.622 1.003 1.473t.369 1.816-.369 1.816-1.003 1.486q-.635.622-1.486.99t-1.816.369-1.816-.369-1.486-.99q-.622-.635-.99-1.486t-.369-1.816.368-1.816.991-1.473q.635-.635 1.486-1.004t1.816-.368zm0 7.176q.52 0 .978-.191.457-.203.8-.546t.533-.8q.204-.457.204-.978t-.204-.978q-.19-.457-.533-.8t-.8-.534q-.457-.203-.978-.203t-.978.203q-.457.191-.8.534t-.546.8q-.19.457-.19.978t.19.978q.203.457.546.8t.8.546q.457.19.978.19zM127.45 53.245q-.445 0-.889-.127-.432-.114-.826-.368-.685-.445-1.066-1.143-.381-.712-.381-1.55h2.146q0 .381.165.597.165.203.292.28.229.152.495.165t.521-.102q.178-.076.28-.19.114-.115.165-.216.063-.115.076-.216t.013-.165-.013-.165-.076-.216q-.051-.115-.165-.216-.102-.114-.28-.203-.14-.064-.305-.115-.152-.05-.33-.114-.317-.102-.66-.229t-.686-.342q-.445-.28-.75-.699t-.444-.902q-.127-.482-.089-.99.051-.521.292-.99.229-.433.572-.75t.762-.495q.419-.191.902-.23t.978.09q.482.114.876.368.393.241.673.597.292.343.444.775t.153.901h-2.146q0-.292-.191-.406-.178-.114-.317-.152-.026 0-.127-.013-.09-.025-.216 0-.115.013-.242.089-.127.063-.203.216-.101.203-.038.432.064.215.254.342.178.102.394.19.216.077.457.153.216.064.432.14.228.076.457.178.838.38 1.308 1.117.483.737.483 1.639 0 .889-.483 1.625-.47.737-1.308 1.118-.33.152-.673.216-.343.076-.686.076zM133.65 53.068h-2.146v-9.335h2.146zM140.48 53.068h-5.55v-9.335h2.146v7.189h3.404zM149.6 43.733l-4.788 4.674 4.788 4.66h-3.099l-2.997-2.933v2.933h-2.146v-9.334h2.146v2.946l3.01-2.946z"/>
      <path d="M153.76 43.733q.965 0 1.816.368t1.486 1.004q.635.622 1.003 1.473t.369 1.816-.369 1.816-1.003 1.486q-.635.622-1.486.99t-1.816.369-1.816-.369-1.486-.99q-.622-.635-.99-1.486t-.369-1.816.368-1.816.991-1.473q.635-.635 1.486-1.004t1.816-.368zm0 7.176q.52 0 .978-.191.457-.203.8-.546t.533-.8q.204-.457.204-.978t-.204-.978q-.19-.457-.533-.8t-.8-.534q-.457-.203-.978-.203t-.978.203q-.457.191-.8.534t-.546.8q-.19.457-.19.978t.19.978q.203.457.546.8t.8.546q.457.19.978.19zM168.21 43.682h2.248l-2.756 9.385h-2.12l-1.233-4.673-1.067 4.673h-2.133l-3.099-9.385h2.26l1.728 5.194 1.18-5.194h2.11l1.37 5.169z"/>
    </g>
    <g transform="translate(16.241 -14.883)" style="shape-inside:url(#rect24);white-space:pre" aria-label="FOOD CATERING">
      <path d="M44.469 72.534h3.08v1.058h-1.916v2.064h1.503v1.058h-1.503v3.228H44.47zM49.79 80.048q-.857 0-1.312-.487t-.455-1.376v-3.894q0-.89.455-1.376t1.312-.487q.857 0 1.312.487t.455 1.376v3.894q0 .89-.455 1.376t-1.312.487zm0-1.058q.603 0 .603-.73v-4.043q0-.73-.603-.73t-.603.73v4.042q0 .73.603.73zM54.027 80.048q-.857 0-1.312-.487-.455-.487-.455-1.376v-3.894q0-.89.455-1.376.455-.487 1.312-.487t1.312.487.455 1.376v3.894q0 .89-.455 1.376t-1.312.487zm0-1.058q.603 0 .603-.73v-4.043q0-.73-.603-.73t-.603.73v4.042q0 .73.603.73zM56.582 72.534h1.778q.868 0 1.302.466.434.465.434 1.365v3.746q0 .9-.434 1.366-.434.465-1.302.465h-1.778zm1.757 6.35q.286 0 .434-.17.158-.169.158-.55v-3.852q0-.381-.158-.55-.148-.17-.434-.17h-.593v5.292zM64.217 80.048q-.836 0-1.28-.476-.435-.476-.435-1.344v-3.98q0-.867.434-1.344.445-.476 1.281-.476.836 0 1.27.476.445.477.445 1.344v.784H64.83v-.858q0-.688-.582-.688t-.582.688v4.138q0 .678.582.678t.582-.678V77.18h1.1v1.048q0 .867-.444 1.344-.434.476-1.27.476zM67.527 72.534h1.577l1.206 7.408h-1.164l-.211-1.47v.02h-1.323l-.212 1.45h-1.08zm1.27 4.953l-.519-3.662h-.02l-.509 3.662zM71.279 73.592h-1.217v-1.058h3.598v1.058h-1.217v6.35H71.28zM74.214 72.534h3.175v1.058h-2.01v1.958h1.597v1.059h-1.598v2.275h2.011v1.058h-3.175zM78.059 72.534h1.725q.9 0 1.312.423.413.413.413 1.28v.456q0 1.154-.762 1.46v.022q.423.127.593.518.18.392.18 1.048v1.302q0 .317.02.518.022.19.107.381H80.46q-.063-.18-.084-.338-.021-.16-.021-.572v-1.355q0-.508-.17-.709-.158-.2-.56-.2h-.403v3.174H78.06zm1.587 3.175q.35 0 .52-.18.179-.18.179-.603v-.572q0-.402-.148-.582-.138-.18-.445-.18h-.529v2.117zM82.317 72.534h1.164v7.408h-1.164zM84.342 72.534h1.46l1.133 4.434h.021v-4.434h1.037v7.408h-1.196L85.4 74.534h-.02v5.408h-1.038zM90.52 80.048q-.847 0-1.291-.476-.445-.487-.445-1.387v-3.894q0-.9.445-1.376.444-.487 1.291-.487t1.291.487q.445.476.445 1.376v.635h-1.101v-.71q0-.73-.603-.73t-.604.73v4.054q0 .72.604.72t.603-.72v-1.45h-.582v-1.058h1.683v2.423q0 .9-.445 1.387-.444.476-1.291.476z"/>
    </g>
    <path d="M94.622 8.196h-8.467a.455.455 0 100 .911h8.467a.455.455 0 000-.91z"/>
    <path d="M97.968 11.84H96.9V7.286h.152a.455.455 0 100-.91h-.776A5.93 5.93 0 0090.828.927V.456a.455.455 0 10-.911 0v.472a5.93 5.93 0 00-5.447 5.447h-.776a.455.455 0 100 .911h.151v4.554h-3.188c.199-.265.342-.575.41-.911h.198a.455.455 0 100-.91h-.608c.199-.266.342-.575.41-.911h.198a.455.455 0 100-.911h-.608c.199-.265.342-.575.41-.91h.198a.455.455 0 100-.912h-.608c.199-.264.342-.574.41-.91h.198a.455.455 0 100-.91h-9.107a.455.455 0 100 .91h.198c.068.336.211.646.41.91h-.608a.455.455 0 100 .911h.198c.068.336.211.646.41.91h-.608a.455.455 0 100 .912h.198c.068.336.211.645.41.91h-.608a.455.455 0 100 .911h.198c.068.336.211.646.41.91h-1.525a.455.455 0 00-.455.456v3.643c0 .252.203.455.455.455h22.476a.455.455 0 100-.91h-22.02V12.75h25.816v2.733h-1.975a.455.455 0 100 .91h1.817v9.39c-.686-.066-1.08-.284-1.526-.53-.564-.31-1.203-.663-2.42-.663s-1.857.353-2.421.664c-.536.295-.998.55-1.981.55s-1.446-.255-1.981-.55c-.564-.311-1.204-.664-2.421-.664s-1.857.353-2.421.664c-.536.295-.998.55-1.981.55-.983 0-1.446-.255-1.981-.55-.564-.311-1.203-.664-2.421-.664s-1.857.353-2.42.664c-.128.07-.25.137-.377.2-.318.157-.66.282-1.15.33v-8.025a.455.455 0 10-.91 0v8.5c0 .252.204.456.455.456.563 0 1-.076 1.366-.188v1.554a.455.455 0 10.91 0V26.13c.05-.026.098-.053.145-.079.535-.295.998-.55 1.98-.55s1.446.255 1.982.55c.564.311 1.203.664 2.42.664 1.218 0 1.858-.353 2.422-.664.535-.295.997-.55 1.98-.55s1.446.255 1.982.55c.564.311 1.203.664 2.42.664 1.218 0 1.858-.353 2.422-.664.535-.295.997-.55 1.98-.55s1.446.255 1.981.55l.144.079v1.951a.455.455 0 10.911 0v-1.554c.365.112.803.188 1.366.188a.455.455 0 00.455-.455v-9.978a.454.454 0 00.159-.344v-3.643a.455.455 0 00-.455-.456zm-19.131 0h-4.25c-.594 0-1.1-.38-1.288-.91h6.826c-.188.529-.694.91-1.288.91zm0-1.822h-4.25c-.594 0-1.1-.38-1.288-.91h6.826c-.188.53-.694.91-1.288.91zm0-1.821h-4.25c-.594 0-1.1-.38-1.288-.91h6.826c-.188.53-.694.91-1.288.91zm0-1.822h-4.25c-.594 0-1.1-.38-1.288-.91h6.826c-.188.53-.694.91-1.288.91zm11.536-4.553a5.015 5.015 0 014.987 4.553h-9.975a5.015 5.015 0 014.988-4.553zm5.616 10.018H84.757V7.286h11.232z"/>
    <path d="M95.685 20.795a.455.455 0 01-.456.456.455.455 0 01-.455-.456.455.455 0 01.455-.455.455.455 0 01.456.455M93.863 22.617a.455.455 0 01-.455.455.455.455 0 01-.455-.455.455.455 0 01.455-.456.455.455 0 01.455.456"/>
    <path d="M113.045 61.679h46.01a9.695 9.743 0 019.695-9.743V25.645a9.695 9.743 0 01-9.695-9.743h-55.313M65.042 15.901H10.15h0a9.695 9.743 0 01-9.695 9.743v26.291a9.695 9.743 0 019.695 9.743h44.875" fill="none" stroke="currentColor" stroke-linecap="round" stroke-width=".9109489399999999"/>
    <g>
      <path d="M8.691 40.054a1.4 1.4 0 01-1.4 1.4 1.4 1.4 0 01-1.4-1.4 1.4 1.4 0 011.4-1.4 1.4 1.4 0 011.4 1.4M163.202 40.054a1.4 1.4 0 01-1.4 1.4 1.4 1.4 0 01-1.4-1.4 1.4 1.4 0 011.4-1.4 1.4 1.4 0 011.4 1.4M121.011 39.438l-2.82 4.358 1.514.98 3.454-5.338zM137.202 34.103l-1.915 4.665h1.95l1.914-4.665z"/>
    </g>
  </g>
</svg>