<?xml version="1.0" standalone="no"?>
<!DOCTYPE svg PUBLIC "-//W3C//DTD SVG 20010904//EN"
 "http://www.w3.org/TR/2001/REC-SVG-20010904/DTD/svg10.dtd">
<svg version="1.0" xmlns="http://www.w3.org/2000/svg"
 width="928.000000pt" height="928.000000pt" viewBox="0 0 928.000000 928.000000"
 preserveAspectRatio="xMidYMid meet">
<metadata>
Created by potrace 1.11, written by Peter Selinger 2001-2013
</metadata>
<g transform="translate(0.000000,928.000000) scale(0.100000,-0.100000)"
fill="#000000" stroke="none">
<path d="M6448 9259 c-21 -11 -38 -24 -38 -29 0 -5 -7 -16 -17 -25 -12 -13
-17 -40 -19 -116 -2 -54 -5 -103 -8 -107 -3 -5 -20 -9 -38 -10 -18 -1 -48 -4
-65 -7 -18 -3 -48 -7 -65 -10 -18 -2 -44 -7 -58 -10 -14 -3 -35 -8 -47 -10
-13 -3 -33 -7 -44 -10 -85 -18 -354 -119 -365 -137 -3 -4 -14 -8 -25 -8 -10 0
-19 -4 -19 -10 0 -5 -5 -10 -11 -10 -10 0 -141 -74 -164 -92 -5 -4 -39 -29
-75 -55 -119 -85 -281 -236 -352 -328 -12 -16 -29 -37 -37 -45 -70 -72 -245
-392 -296 -540 -25 -73 -29 -88 -40 -130 -3 -11 -7 -29 -10 -40 -3 -11 -7 -29
-10 -40 -9 -36 -13 -57 -20 -96 -10 -68 -25 -169 -25 -179 0 -6 -56 -10 -149
-10 -141 0 -150 -2 -184 -25 -33 -23 -65 -73 -59 -93 1 -4 -2 -16 -8 -26 -5
-10 -6 -22 -2 -26 4 -3 8 -11 8 -16 1 -5 2 -13 3 -17 0 -5 13 -22 29 -38 30
-34 70 -52 122 -56 l35 -3 0 -735 0 -735 -512 -3 c-473 -2 -539 1 -504 22 13
8 102 194 100 209 -1 6 3 23 8 37 9 21 17 26 44 25 138 -5 218 118 150 228
-34 55 -77 70 -203 70 -59 0 -108 2 -108 5 0 2 13 26 28 51 38 62 79 158 87
202 6 35 8 36 55 36 66 1 116 27 145 77 44 75 14 169 -65 205 -28 12 -65 16
-144 16 -107 -1 -119 4 -91 35 24 26 81 150 95 206 l13 52 56 4 c69 6 80 9
100 28 88 85 69 212 -39 256 -14 6 -73 10 -132 10 -60 -1 -108 3 -108 7 0 5
10 23 23 40 27 38 59 108 76 162 29 92 27 90 83 89 87 0 158 67 153 146 -4 60
-21 92 -62 120 -30 20 -48 25 -105 25 -37 0 -68 3 -68 7 0 4 -6 5 -14 2 -24
-9 -107 -11 -112 -3 -2 5 -11 6 -20 2 -22 -8 -174 -9 -174 -1 0 4 -6 5 -14 2
-24 -9 -107 -11 -112 -3 -2 5 -11 6 -20 2 -22 -8 -174 -9 -174 -1 0 4 -6 5
-14 2 -24 -9 -107 -11 -112 -2 -3 5 -10 5 -16 2 -9 -6 -237 -9 -263 -4 -5 1
-14 1 -20 0 -27 -6 -375 -4 -375 2 0 4 -6 5 -14 2 -24 -9 -107 -11 -112 -2 -3
5 -10 5 -16 2 -8 -5 -396 -9 -423 -4 -5 2 -14 1 -20 0 -12 -3 -286 -2 -300 0
-5 1 -14 1 -20 0 -29 -7 -375 -4 -375 3 0 5 -4 5 -10 2 -5 -3 -52 -7 -103 -9
-107 -3 -148 -22 -173 -82 -44 -104 18 -202 131 -209 30 -2 59 -6 64 -9 7 -5
21 -55 22 -81 1 -11 73 -152 91 -177 14 -20 16 -28 6 -29 -7 0 -60 -1 -118 -2
-121 -2 -165 -21 -194 -81 -51 -107 23 -216 147 -216 48 0 53 -4 60 -45 2 -11
7 -29 11 -40 5 -11 13 -33 19 -50 6 -16 27 -57 46 -90 19 -33 33 -62 30 -65
-2 -2 -51 -5 -109 -5 -164 -2 -215 -38 -215 -152 0 -52 4 -66 25 -88 37 -40
78 -58 132 -58 48 0 53 -4 63 -51 12 -58 39 -117 93 -207 l22 -35 -99 -1
c-155 -1 -190 -13 -225 -81 -52 -102 18 -212 138 -215 56 -2 62 -6 70 -51 6
-36 40 -126 47 -126 5 0 9 -5 9 -10 0 -6 11 -28 25 -50 14 -22 25 -44 25 -50
0 -7 -80 -10 -244 -10 -279 1 -313 -4 -354 -59 l-27 -34 0 -646 0 -646 23 -32
c12 -17 37 -39 54 -47 28 -14 397 -16 3720 -16 3390 0 3692 1 3721 16 37 20
50 31 67 63 14 28 21 121 8 121 -4 0 -8 6 -8 13 0 16 -34 49 -70 68 -21 11
-625 14 -3620 15 -1977 1 -3597 2 -3600 3 -4 1 -5 812 -1 871 1 13 474 15
4196 15 3722 0 4195 -2 4196 -15 3 -44 4 -838 1 -855 -3 -20 -11 -20 -335 -20
-314 1 -334 -1 -371 -20 -22 -11 -48 -31 -57 -45 -37 -53 -30 -141 15 -184 44
-44 62 -46 386 -46 l310 0 1 -27 c0 -16 0 -701 1 -1523 1 -1391 -1 -1495 -16
-1498 -29 -6 -177 28 -256 59 -41 16 -109 47 -150 69 -202 108 -343 172 -443
200 -60 17 -111 29 -114 26 -3 -2 -15 -1 -27 3 -46 18 -426 36 -426 21 0 -3
-12 -5 -27 -6 -143 -4 -348 -66 -526 -160 -56 -30 -140 -73 -187 -96 -47 -24
-87 -45 -90 -48 -3 -3 -12 -7 -20 -9 -8 -2 -49 -14 -90 -27 -113 -33 -131 -36
-310 -39 -176 -4 -275 7 -390 44 -36 11 -69 21 -75 22 -5 1 -57 26 -115 57
-357 188 -446 223 -629 247 -14 2 -26 4 -26 5 0 5 -141 11 -245 12 -152 0
-256 -12 -372 -43 -76 -20 -162 -50 -175 -60 -7 -6 -13 -9 -13 -6 0 6 -76 -32
-281 -140 -82 -44 -218 -100 -259 -108 -14 -3 -41 -8 -60 -11 -19 -4 -44 -9
-55 -12 -38 -9 -330 -10 -385 -1 -30 5 -66 11 -80 13 -102 17 -181 51 -470
200 -132 68 -219 104 -295 122 -134 33 -256 47 -410 46 -220 0 -391 -32 -560
-102 -16 -7 -36 -14 -43 -16 -7 -1 -18 -7 -25 -12 -14 -11 -177 -98 -289 -154
-118 -59 -356 -120 -359 -92 0 5 -1 603 -2 1329 l-2 1320 -23 33 c-61 85 -183
85 -244 0 -20 -28 -23 -46 -25 -126 0 -51 -4 -99 -7 -107 -3 -8 -2 -15 2 -15
6 0 8 -474 2 -540 -1 -14 -1 -27 -1 -30 6 -16 2 -370 -3 -379 -4 -6 -4 -11 1
-11 7 0 10 -468 3 -540 -1 -14 -1 -27 -1 -30 6 -16 2 -370 -3 -379 -4 -6 -4
-11 1 -11 7 0 10 -468 3 -540 -1 -14 -1 -28 -1 -32 1 -5 2 -36 3 -70 0 -34 5
-73 10 -87 13 -37 49 -74 83 -87 64 -23 331 1 473 42 12 3 22 2 23 -2 0 -5 1
-128 2 -274 2 -293 5 -307 69 -345 56 -33 136 -27 179 14 47 45 49 60 49 413
l0 333 98 51 c122 65 254 116 332 129 148 26 401 26 530 0 75 -15 176 -55 307
-122 272 -139 301 -153 380 -179 244 -80 592 -93 848 -30 6 1 26 6 45 10 19 5
47 15 62 22 15 8 35 15 45 17 21 4 91 33 113 46 8 5 44 24 80 43 36 18 96 50
134 71 38 22 74 40 80 41 6 1 25 9 41 18 31 17 148 53 200 63 134 25 400 25
530 0 17 -4 62 -17 100 -31 39 -13 74 -25 79 -26 12 -4 95 -46 277 -141 250
-130 417 -170 709 -170 215 0 354 21 505 79 11 4 22 8 25 9 35 12 92 40 323
159 92 47 171 85 175 84 4 0 14 1 22 5 38 15 130 36 185 43 129 16 411 6 473
-17 12 -5 22 -6 22 -4 0 11 183 -61 260 -102 47 -25 95 -51 107 -57 l23 -11
-1 -331 c-1 -295 1 -335 16 -368 23 -48 67 -78 124 -83 38 -4 54 0 88 23 23
15 47 39 54 53 9 19 13 103 14 293 1 147 4 270 7 274 3 3 26 0 49 -7 24 -7 51
-13 59 -14 8 -2 29 -5 45 -8 67 -12 139 -19 230 -22 105 -3 135 8 179 68 l21
28 2 1644 1 1644 24 33 23 33 2 639 c2 458 0 643 -8 653 -6 7 -9 13 -6 13 13
0 -50 57 -75 68 -28 12 -359 19 -377 8 -5 -4 -13 -1 -18 6 -4 7 -8 342 -8 744
l0 732 53 4 c54 5 96 28 116 64 6 10 13 21 16 24 21 21 13 101 -15 144 -32 49
-86 64 -223 63 -67 -1 -130 0 -138 4 -12 3 -17 21 -19 62 -2 31 -6 60 -8 64
-3 5 -8 33 -12 63 -4 30 -9 58 -11 61 -2 3 -6 21 -9 40 -3 19 -10 48 -15 64
-70 222 -149 396 -247 542 -32 47 -62 93 -68 102 -5 8 -14 20 -20 26 -5 7 -26
31 -45 55 -38 48 -177 188 -231 234 -79 67 -208 158 -295 207 -45 25 -177 93
-184 94 -3 0 -41 15 -85 32 -131 51 -314 96 -440 109 -101 9 -95 3 -96 107 -1
50 -1 94 -1 97 0 3 -12 23 -26 44 -43 63 -125 82 -194 45z m247 -583 c22 -2
60 -7 85 -11 25 -4 54 -8 65 -10 38 -5 230 -64 278 -84 26 -11 51 -21 55 -22
17 -2 197 -102 200 -110 2 -5 9 -9 16 -9 18 0 213 -155 276 -219 77 -78 160
-177 160 -189 0 -6 4 -12 9 -14 12 -5 95 -137 134 -215 56 -110 117 -275 133
-358 23 -121 35 -207 31 -217 -3 -10 -326 -13 -1618 -12 l-1614 1 1 29 c3 174
104 478 221 662 18 29 33 56 33 61 0 5 3 11 8 13 4 2 27 30 52 63 75 101 164
195 260 273 36 29 75 61 88 72 12 10 26 20 30 21 4 1 25 14 47 29 55 38 226
124 307 154 75 28 242 73 303 81 22 3 67 8 100 11 33 3 61 7 62 8 3 3 232 -3
278 -8z m-3512 -1175 c29 -3 -127 -211 -160 -211 -6 0 -13 -3 -15 -7 -6 -15
-84 -51 -138 -63 -42 -10 -227 -13 -805 -13 -745 1 -750 1 -814 22 -35 12 -84
36 -107 52 -51 35 -134 118 -134 135 0 6 -7 17 -15 24 -9 7 -13 15 -11 18 3 2
1 13 -4 23 -6 11 -6 19 0 21 8 2 2178 2 2203 -1z m0 -598 c8 -14 -75 -141 -99
-154 -13 -7 -22 -15 -19 -17 6 -6 -67 -57 -77 -54 -5 1 -8 -2 -8 -7 0 -5 -9
-11 -20 -14 -11 -3 -24 -6 -28 -7 -4 -1 -14 -6 -23 -11 -9 -4 -29 -11 -45 -15
-44 -10 -1502 -11 -1559 -1 -120 21 -244 110 -304 218 -17 31 -31 59 -31 62 0
10 2208 9 2213 0z m5164 -733 l0 -740 -1814 0 c-998 0 -1818 -2 -1823 -5 -4
-3 -10 3 -12 13 -3 14 -3 1444 1 1465 0 4 822 7 1825 7 l1824 0 -1 -740z
m-5167 133 c0 -21 -68 -124 -103 -155 -51 -47 -101 -78 -163 -100 -59 -22 -61
-22 -819 -24 -615 -1 -770 1 -810 13 -28 7 -57 15 -66 17 -78 20 -216 158
-243 242 l-6 21 1105 0 c935 0 1105 -2 1105 -14z m-2 -586 c7 -18 -47 -104
-97 -155 -49 -50 -147 -107 -206 -121 -11 -2 -364 -6 -785 -8 -723 -3 -768 -2
-826 16 -86 26 -120 47 -189 116 -56 56 -110 139 -101 153 6 10 2200 9 2204
-1z"/>
<path d="M5127 6612 c-50 -13 -87 -38 -106 -73 -12 -21 -19 -39 -15 -39 3 0 1
-6 -5 -13 -6 -8 -8 -16 -5 -19 2 -3 7 -18 10 -34 7 -42 35 -76 79 -98 37 -19
79 -19 1444 -19 1256 0 1409 1 1436 15 107 56 114 201 12 259 l-42 23 -1398 1
c-768 0 -1403 -1 -1410 -3z"/>
<path d="M8060 2658 c-86 -23 -129 -113 -94 -198 51 -121 223 -118 270 5 27
73 -1 151 -66 182 -43 21 -65 23 -110 11z"/>
<path d="M7478 2069 c-98 -26 -139 -111 -100 -209 23 -58 109 -97 169 -76 44
16 93 56 93 77 0 10 4 20 10 24 13 8 4 78 -15 115 -27 52 -100 85 -157 69z"/>
</g>
</svg>
